<svg id="Layer_1" xmlns="http://www.w3.org/2000/svg" viewBox="0 0 18 18">
    <defs>
        <style>.cls-1{fill:#011520;}</style>
    </defs>
    <path class="cls-1"
        d="M14.36,13.89H3.64a1.12,1.12,0,0,1-1.12-1.12v-6A1.12,1.12,0,0,1,3.64,5.62H7.25l.57-1a1,1,0,0,1,.9-.52h2.6a1,1,0,0,1,.92.57l.55.94h1.57a1.12,1.12,0,0,1,1.12,1.12v6A1.12,1.12,0,0,1,14.36,13.89ZM3.64,6.12A.62.62,0,0,0,3,6.74v6a.62.62,0,0,0,.62.62H14.36a.62.62,0,0,0,.62-.62v-6a.62.62,0,0,0-.62-.62H12.65A.27.27,0,0,1,12.43,6l-.64-1.12a.5.5,0,0,0-.47-.27H8.72a.51.51,0,0,0-.44.23L7.62,6a.27.27,0,0,1-.22.12Z" />
    <path class="cls-1"
        d="M10,12.41a2.52,2.52,0,1,1,2.51-2.52A2.52,2.52,0,0,1,10,12.41Zm0-4.53a2,2,0,1,0,2,2A2,2,0,0,0,10,7.88Z" />
    <path class="cls-1" d="M13.69,7.67h-.21a.25.25,0,0,1,0-.5h.21a.25.25,0,0,1,0,.5Z" />
    <path class="cls-1"
        d="M6.5,5.87H6V5.64A.62.62,0,0,0,5.38,5H4.47a.62.62,0,0,0-.62.62v.23h-.5V5.64A1.12,1.12,0,0,1,4.47,4.52h.91A1.12,1.12,0,0,1,6.5,5.64Z" />
</svg>