<svg id="Layer_1" xmlns="http://www.w3.org/2000/svg" viewBox="0 0 18 18">
    <defs>
        <style>.cls-1{fill:#011520;}</style>
    </defs>
    <path class="cls-1"
        d="M13.53,14.06H2.77a.25.25,0,0,1-.25-.25V6.26A.25.25,0,0,1,2.77,6H13.53a.25.25,0,0,1,.25.25v7.55A.25.25,0,0,1,13.53,14.06ZM3,13.56H13.28v-7H3Z" />
    <path class="cls-1"
        d="M6.38,8.93h.08L8.27,10.4a.56.56,0,0,0,.32.11A.48.48,0,0,0,9,10.35l.89-.92.06,0,1.89,1.25v1.45H4.32V11l2-2h.09m0-.5A.6.6,0,0,0,6,8.58L3.89,10.7a.23.23,0,0,0-.07.17v1.78h8.47v-2.1a.24.24,0,0,0-.13-.2L10.18,9a.67.67,0,0,0-.34-.1.5.5,0,0,0-.34.13L8.59,10,6.78,8.55a.65.65,0,0,0-.4-.12Z" />
    <path class="cls-1"
        d="M8.56,9.29l-.3-.4a.5.5,0,0,0,.19-.41.5.5,0,0,0-.16-.34A.46.46,0,0,0,7.94,8a.48.48,0,0,0-.44.31L7,8.16a1,1,0,0,1,1.6-.38A1,1,0,0,1,9,8.46,1,1,0,0,1,8.56,9.29Z" />
    <path class="cls-1"
        d="M14.5,13h0l-1-.09.05-.5.72.07.69-7-10.21-1L4.57,6.29l-.5,0,.2-2.08A.32.32,0,0,1,4.36,4a.25.25,0,0,1,.19-.05l10.7,1a.22.22,0,0,1,.17.09.3.3,0,0,1,.06.18l-.73,7.52A.25.25,0,0,1,14.5,13Z" />
</svg>