<?xml version="1.0" standalone="no"?>
<!DOCTYPE svg PUBLIC "-//W3C//DTD SVG 20010904//EN"
 "http://www.w3.org/TR/2001/REC-SVG-20010904/DTD/svg10.dtd">
<svg version="1.0" xmlns="http://www.w3.org/2000/svg"
 width="512.000000pt" height="512.000000pt" viewBox="0 0 512.000000 512.000000"
 preserveAspectRatio="xMidYMid meet">
<metadata>
Created by potrace 1.14, written by Peter Selinger 2001-2017
</metadata>
<g transform="translate(0.000000,512.000000) scale(0.100000,-0.100000)"
fill="#000000" stroke="none">
<path d="M2340 4890 c-442 -40 -902 -228 -1260 -517 -421 -339 -726 -849 -829
-1386 -70 -365 -51 -719 59 -1112 52 -186 68 -271 80 -418 22 -262 -19 -521
-130 -806 -27 -72 -50 -144 -50 -161 0 -64 51 -144 112 -176 55 -29 116 -17
570 107 380 104 445 120 462 109 11 -7 66 -37 121 -66 255 -134 551 -222 853
-255 141 -15 436 -7 582 16 889 139 1604 746 1885 1600 193 585 140 1242 -146
1802 -262 512 -722 920 -1273 1127 -304 115 -697 166 -1036 136z m296 -449
c23 -10 53 -34 66 -52 14 -19 341 -590 727 -1269 752 -1325 721 -1263 687
-1344 -36 -87 -169 -114 -245 -50 -16 13 -58 76 -92 139 l-63 115 -133 0
c-129 0 -133 -1 -138 -22 -21 -100 -99 -762 -105 -893 -7 -180 -19 -220 -75
-255 -49 -31 -89 -35 -140 -15 -67 25 -98 71 -103 151 l-4 64 -148 0 -148 0
-4 -68 c-4 -80 -23 -112 -86 -143 -53 -26 -111 -20 -160 18 -42 32 -62 77 -62
143 l0 50 -150 0 -150 0 0 -59 c0 -100 -60 -165 -154 -165 -61 -1 -95 18 -133
74 -21 30 -23 45 -23 164 0 98 -12 227 -50 521 -28 214 -52 400 -55 413 -5 21
-8 22 -143 22 l-138 0 -65 -116 c-80 -146 -107 -169 -195 -169 -56 0 -66 3
-95 30 -38 36 -59 82 -59 128 0 26 159 313 701 1268 385 679 712 1249 726
1268 29 37 93 71 138 71 17 0 49 -9 71 -19z"/>
<path d="M2093 3173 c-481 -847 -493 -868 -493 -877 0 -2 65 -6 144 -8 127 -3
148 -5 172 -24 63 -46 62 -42 122 -507 l57 -437 472 0 473 0 4 23 c3 12 29
208 59 435 58 442 57 439 121 486 24 18 45 21 167 24 116 3 140 6 135 18 -5
14 -913 1614 -946 1667 l-17 29 -470 -829z"/>
</g>
</svg>
